<svg version="1.1" xmlns="http://www.w3.org/2000/svg" viewBox="0 0 871 482.875" width="1742" height="965.75">
  <!-- svg-source:excalidraw -->
  
  <defs>
    <style class="style-fonts">
      @font-face {
        font-family: "Virgil";
        src: url("https://excalidraw.com/Virgil.woff2");
      }
      @font-face {
        font-family: "Cascadia";
        src: url("https://excalidraw.com/Cascadia.woff2");
      }
    </style>
  </defs>
  <rect x="0" y="0" width="871" height="482.875" fill="#ffffff"></rect><g stroke-linecap="round" transform="translate(10 168.875) rotate(0 87 61)"><path d="M30.5 0 M30.5 0 C69.84 -1.58, 112.59 -2.96, 143.5 0 M30.5 0 C64.48 -0.41, 99.03 -0.8, 143.5 0 M143.5 0 C165.34 -0.02, 172.31 9.68, 174 30.5 M143.5 0 C162.3 -1.48, 174.05 11.6, 174 30.5 M174 30.5 C172.95 49.92, 172.4 67.63, 174 91.5 M174 30.5 C174.44 54.85, 174.65 78.98, 174 91.5 M174 91.5 C172.01 110.21, 163.44 123.05, 143.5 122 M174 91.5 C175.35 113.06, 163.9 123.51, 143.5 122 M143.5 122 C104.93 122.27, 63.96 120.1, 30.5 122 M143.5 122 C116.64 121.58, 90.02 121.08, 30.5 122 M30.5 122 C11.82 122.41, 1.38 110.88, 0 91.5 M30.5 122 C10.78 120.49, -1.4 114.13, 0 91.5 M0 91.5 C1.32 71.16, 1.95 51.56, 0 30.5 M0 91.5 C-0.82 72.39, -1.38 54.33, 0 30.5 M0 30.5 C0.95 11.14, 11.9 -0.86, 30.5 0 M0 30.5 C1.45 10.35, 12.44 1.14, 30.5 0" stroke="#000000" stroke-width="1" fill="none"></path></g><g transform="translate(23.866668701171875 212.375) rotate(0 73.13333129882812 17.5)"><text x="73.13333129882812" y="0" font-family="Virgil, Segoe UI Emoji" font-size="28px" fill="#000000" text-anchor="middle" style="white-space: pre;" direction="ltr" dominant-baseline="text-before-edge">Developers</text></g><g stroke-linecap="round" transform="translate(344 59.875) rotate(0 258.5 206.5)"><path d="M32 0 M32 0 C183.42 1.99, 334.27 0.37, 485 0 M32 0 C212.4 -0.39, 392.38 -0.73, 485 0 M485 0 C507.49 -1.08, 518.63 9.94, 517 32 M485 0 C508.06 -1.24, 516.17 10.94, 517 32 M517 32 C518.34 139.16, 517.9 247.94, 517 381 M517 32 C515.36 103.19, 515.3 175.05, 517 381 M517 381 C517.18 403.59, 505.81 413.88, 485 413 M517 381 C515.43 403.78, 504.59 411.68, 485 413 M485 413 C343.2 414.29, 200.11 412.9, 32 413 M485 413 C374.36 414.08, 263.7 413.99, 32 413 M32 413 C10.43 413.96, 1.13 401.45, 0 381 M32 413 C9.73 413.7, 1.88 402.8, 0 381 M0 381 C-1.72 270.03, -0.68 162.13, 0 32 M0 381 C-0.66 266.56, -0.92 151.24, 0 32 M0 32 C0.13 9.94, 10.36 1.52, 32 0 M0 32 C1.5 12.51, 8.51 -0.64, 32 0" stroke="#000000" stroke-width="1" fill="none"></path></g><g stroke-linecap="round" transform="translate(409 87.875) rotate(0 58 41.5)"><path d="M20.75 0 M20.75 0 C35.33 1.63, 51.18 0.25, 95.25 0 M20.75 0 C37.27 -0.47, 53.1 -0.58, 95.25 0 M95.25 0 C110.78 -1.27, 114.63 5.18, 116 20.75 M95.25 0 C110.15 -1.76, 115.23 7.39, 116 20.75 M116 20.75 C116.13 31.26, 117.44 44.02, 116 62.25 M116 20.75 C116.13 36.14, 116.1 52.45, 116 62.25 M116 62.25 C114.49 77.05, 110.97 82.8, 95.25 83 M116 62.25 C117.63 75.41, 108.77 81.14, 95.25 83 M95.25 83 C79.6 83.34, 62.13 84.88, 20.75 83 M95.25 83 C70.32 82.33, 46.49 83.06, 20.75 83 M20.75 83 C8.41 84.44, 0.11 75.05, 0 62.25 M20.75 83 C8.3 81.06, 2.14 78.38, 0 62.25 M0 62.25 C2.1 49.99, 0.13 36.91, 0 20.75 M0 62.25 C0.9 49.26, 0.49 37.9, 0 20.75 M0 20.75 C1.01 5.43, 8.48 0.37, 20.75 0 M0 20.75 C0.76 5.53, 5.07 0.83, 20.75 0" stroke="#000000" stroke-width="1" fill="none"></path></g><g transform="translate(434.43333435058594 101.875) rotate(0 32.56666564941406 27.5)"><text x="32.56666564941406" y="0" font-family="Virgil, Segoe UI Emoji" font-size="22px" fill="#000000" text-anchor="middle" style="white-space: pre;" direction="ltr" dominant-baseline="text-before-edge">Read </text><text x="32.56666564941406" y="27.5" font-family="Virgil, Segoe UI Emoji" font-size="22px" fill="#000000" text-anchor="middle" style="white-space: pre;" direction="ltr" dominant-baseline="text-before-edge">config</text></g><g stroke-linecap="round" transform="translate(588 76.875) rotate(0 56.5 46.5)"><path d="M23.25 0 M23.25 0 C44.86 1.8, 69.69 -1.69, 89.75 0 M23.25 0 C41.92 0.1, 60.76 1.33, 89.75 0 M89.75 0 C105.76 -1.32, 112.77 6.38, 113 23.25 M89.75 0 C107.27 -1.7, 112.31 7.58, 113 23.25 M113 23.25 C114 33.51, 114.27 48.42, 113 69.75 M113 23.25 C112.08 36.62, 112.95 51.24, 113 69.75 M113 69.75 C112.4 84.18, 105.03 93.51, 89.75 93 M113 69.75 C112.76 86.39, 106.1 93.63, 89.75 93 M89.75 93 C67.88 91.62, 44.18 91.48, 23.25 93 M89.75 93 C65.36 93.16, 43.59 93.45, 23.25 93 M23.25 93 C5.93 94.33, 1.85 85.04, 0 69.75 M23.25 93 C6.13 93.66, 0.61 84.25, 0 69.75 M0 69.75 C-1.55 51.02, -1.53 31.23, 0 23.25 M0 69.75 C1.26 58.33, 1.21 46.79, 0 23.25 M0 23.25 C0.98 8.69, 7.95 1.76, 23.25 0 M0 23.25 C-0.83 8.91, 9.63 -0.04, 23.25 0" stroke="#000000" stroke-width="1" fill="none"></path></g><g transform="translate(607.6833343505859 82.125) rotate(0 36.81666564941406 41.25)"><text x="36.81666564941406" y="0" font-family="Virgil, Segoe UI Emoji" font-size="22px" fill="#000000" text-anchor="middle" style="white-space: pre;" direction="ltr" dominant-baseline="text-before-edge">Parse </text><text x="36.81666564941406" y="27.5" font-family="Virgil, Segoe UI Emoji" font-size="22px" fill="#000000" text-anchor="middle" style="white-space: pre;" direction="ltr" dominant-baseline="text-before-edge">form </text><text x="36.81666564941406" y="55" font-family="Virgil, Segoe UI Emoji" font-size="22px" fill="#000000" text-anchor="middle" style="white-space: pre;" direction="ltr" dominant-baseline="text-before-edge">fields</text></g><g stroke-linecap="round" transform="translate(676 188.875) rotate(0 88.5 55.5)"><path d="M27.75 0 M27.75 0 C70.73 -1.21, 112.89 2.63, 149.25 0 M27.75 0 C74.61 0.26, 122.3 1.75, 149.25 0 M149.25 0 C169.45 -1.52, 175.41 8.1, 177 27.75 M149.25 0 C167.74 2.04, 175.47 7.33, 177 27.75 M177 27.75 C178.56 43.65, 176.38 56.93, 177 83.25 M177 27.75 C176.28 42.15, 176.4 55.2, 177 83.25 M177 83.25 C178.77 99.91, 169.15 112.16, 149.25 111 M177 83.25 C176.82 99.64, 167.99 109.59, 149.25 111 M149.25 111 C103.34 113, 54.65 109.84, 27.75 111 M149.25 111 C116.17 110, 81.27 110.85, 27.75 111 M27.75 111 C11 112.65, 0.79 100.21, 0 83.25 M27.75 111 C10.55 111.75, -0.77 100.34, 0 83.25 M0 83.25 C1.29 63.47, -1.28 38.69, 0 27.75 M0 83.25 C-0.21 67.11, -1.24 49.52, 0 27.75 M0 27.75 C-0.15 11.15, 8.97 -1.07, 27.75 0 M0 27.75 C-2.16 10.91, 11.11 1.61, 27.75 0" stroke="#000000" stroke-width="1" fill="none"></path></g><g transform="translate(681.283332824707 216.875) rotate(0 83.21666717529297 27.5)"><text x="83.21666717529297" y="0" font-family="Virgil, Segoe UI Emoji" font-size="22px" fill="#000000" text-anchor="middle" style="white-space: pre;" direction="ltr" dominant-baseline="text-before-edge">Encrypt using a</text><text x="83.21666717529297" y="27.5" font-family="Virgil, Segoe UI Emoji" font-size="22px" fill="#000000" text-anchor="middle" style="white-space: pre;" direction="ltr" dominant-baseline="text-before-edge">available cipher</text></g><g stroke-linecap="round" transform="translate(628 344.875) rotate(0 59.5 52.5)"><path d="M26.25 0 M26.25 0 C41.29 0.8, 59.54 0.14, 92.75 0 M26.25 0 C46.08 -1.2, 66.48 -0.59, 92.75 0 M92.75 0 C110.84 0.38, 117.92 7.56, 119 26.25 M92.75 0 C112.15 0.77, 118.89 6.97, 119 26.25 M119 26.25 C120.81 38.45, 120.39 53.14, 119 78.75 M119 26.25 C118.33 45.45, 118.74 63.32, 119 78.75 M119 78.75 C120.05 94.7, 110.27 104.67, 92.75 105 M119 78.75 C120.26 94.94, 111.97 105.6, 92.75 105 M92.75 105 C78.26 105.96, 66.16 105.13, 26.25 105 M92.75 105 C73.91 105.86, 56.98 104.82, 26.25 105 M26.25 105 C8.42 106.16, 1.3 94.28, 0 78.75 M26.25 105 C8.58 105.38, -1.07 95.24, 0 78.75 M0 78.75 C-0.34 56.82, -0.79 37.12, 0 26.25 M0 78.75 C0.01 65.48, -0.38 50.99, 0 26.25 M0 26.25 C-0.05 8.11, 9.28 1.8, 26.25 0 M0 26.25 C0.9 9.01, 10.38 0.98, 26.25 0" stroke="#000000" stroke-width="1" fill="none"></path></g><g transform="translate(636.5999984741211 369.875) rotate(0 50.900001525878906 27.5)"><text x="50.900001525878906" y="0" font-family="Virgil, Segoe UI Emoji" font-size="22px" fill="#000000" text-anchor="middle" style="white-space: pre;" direction="ltr" dominant-baseline="text-before-edge">Write to </text><text x="50.900001525878906" y="27.5" font-family="Virgil, Segoe UI Emoji" font-size="22px" fill="#000000" text-anchor="middle" style="white-space: pre;" direction="ltr" dominant-baseline="text-before-edge">CSV file</text></g><g stroke-linecap="round" transform="translate(408 326.875) rotate(0 63 52)"><path d="M26 0 M26 0 C43.19 0.47, 61.49 1.7, 100 0 M26 0 C43.64 0.28, 62.82 0.41, 100 0 M100 0 C117.56 1.42, 126.85 8.22, 126 26 M100 0 C115.84 -1.49, 124.56 9.46, 126 26 M126 26 C127.57 39.1, 125.23 53.38, 126 78 M126 26 C126.97 38.2, 125.49 52.37, 126 78 M126 78 C127.76 95.3, 115.73 102.54, 100 104 M126 78 C125.08 97.34, 117.57 104.83, 100 104 M100 104 C77.91 104.54, 56 105.59, 26 104 M100 104 C81.16 104.43, 62.26 105.14, 26 104 M26 104 C9.55 103.15, 1.27 95.14, 0 78 M26 104 C10.25 105.8, 1 96.88, 0 78 M0 78 C-1.21 57.57, 0.68 37.82, 0 26 M0 78 C-0.85 66.37, -0.78 52.98, 0 26 M0 26 C0.99 9.32, 9.16 0.59, 26 0 M0 26 C0.07 10.69, 10.44 1.51, 26 0" stroke="#000000" stroke-width="1" fill="none"></path></g><g transform="translate(422.7666664123535 351.375) rotate(0 48.233333587646484 27.5)"><text x="48.233333587646484" y="0" font-family="Virgil, Segoe UI Emoji" font-size="22px" fill="#000000" text-anchor="middle" style="white-space: pre;" direction="ltr" dominant-baseline="text-before-edge">Push to </text><text x="48.233333587646484" y="27.5" font-family="Virgil, Segoe UI Emoji" font-size="22px" fill="#000000" text-anchor="middle" style="white-space: pre;" direction="ltr" dominant-baseline="text-before-edge">Firebase</text></g><g mask="url(#mask-zx_oPU0Dzhm4Bd2ThWMCj)" stroke-linecap="round"><g transform="translate(186 224.58439398273924) rotate(0 75.93648424837738 -0.3908323281887647)"><path d="M0.84 -0.78 C26.22 -1.04, 127.01 -2, 152.06 -2.21 M-0.18 1.43 C25.07 1.4, 125.52 -0.48, 151.14 -0.85" stroke="#000000" stroke-width="1" fill="none"></path></g><g transform="translate(186 224.58439398273924) rotate(0 75.93648424837738 -0.3908323281887647)"><path d="M121.83 9.97 C130.44 5.2, 138.56 3.49, 152.33 0.49 M122.93 10.63 C133.56 4.82, 144.66 1.63, 150.7 -1.79" stroke="#000000" stroke-width="1" fill="none"></path></g><g transform="translate(186 224.58439398273924) rotate(0 75.93648424837738 -0.3908323281887647)"><path d="M121.49 -10.55 C130.08 -9.58, 138.3 -5.56, 152.33 0.49 M122.59 -9.88 C133.21 -8.04, 144.44 -3.56, 150.7 -1.79" stroke="#000000" stroke-width="1" fill="none"></path></g></g><mask id="mask-zx_oPU0Dzhm4Bd2ThWMCj"><rect x="0" y="0" fill="#fff" width="438" height="326.4483654884027"></rect><rect x="229.21666717529297" y="214.05240822990743" fill="#000" width="65.56666564941406" height="19.2" opacity="1"></rect></mask><g transform="translate(229.21666717529297 214.05240822990754) rotate(0 32.719817073084414 10.141153424642994)"><text x="32.78333282470703" y="0" font-family="Cascadia, Segoe UI Emoji" font-size="16px" fill="#000000" text-anchor="middle" style="white-space: pre;" direction="ltr" dominant-baseline="text-before-edge">/submit</text></g><g stroke-linecap="round"><g transform="translate(340 222.875) rotate(0 30.87084062528794 -44.18367639084576)"><path d="M0.85 -0.55 C4.79 -1.84, 22.56 3.76, 24.01 -8.83 C25.46 -21.41, 3.23 -62.51, 9.55 -76.06 C15.87 -89.61, 52.88 -88.05, 61.91 -90.14 M-0.17 1.77 C3.67 0.72, 22.05 5.12, 23.59 -7.72 C25.13 -20.57, 2.74 -61.69, 9.07 -75.3 C15.4 -88.9, 52.66 -86.67, 61.59 -89.35" stroke="#000000" stroke-width="1" fill="none"></path></g><g transform="translate(340 222.875) rotate(0 30.87084062528794 -44.18367639084576)"><path d="M35.67 -75.12 C43.58 -80.2, 51.43 -87.07, 60.6 -88.11 M36.23 -77.63 C45.29 -82.06, 55.71 -86.04, 62.45 -90.04" stroke="#000000" stroke-width="1" fill="none"></path></g><g transform="translate(340 222.875) rotate(0 30.87084062528794 -44.18367639084576)"><path d="M33.46 -94.12 C41.92 -92.95, 50.5 -93.55, 60.6 -88.11 M34.02 -96.63 C44.06 -93.84, 55.32 -90.6, 62.45 -90.04" stroke="#000000" stroke-width="1" fill="none"></path></g></g><mask></mask><g stroke-linecap="round"><g transform="translate(528.0000000000001 122.72301395911705) rotate(0 26.338023434150898 1.26375147738716)"><path d="M0.6 0.17 C9 0.59, 42.28 1.62, 51.02 1.72 M-0.54 -0.78 C8.16 -0.08, 44.33 2.9, 53.22 3.31" stroke="#000000" stroke-width="1" fill="none"></path></g><g transform="translate(528.0000000000001 122.72301395911705) rotate(0 26.338023434150898 1.26375147738716)"><path d="M28.52 8.92 C37.3 9.56, 44.63 3.54, 51.82 2.34 M28.53 9.79 C37.33 7.33, 46.87 5.57, 52.39 2.59" stroke="#000000" stroke-width="1" fill="none"></path></g><g transform="translate(528.0000000000001 122.72301395911705) rotate(0 26.338023434150898 1.26375147738716)"><path d="M29.71 -8.84 C37.95 -1.89, 44.86 -1.61, 51.82 2.34 M29.73 -7.96 C38.25 -3.87, 47.35 0.93, 52.39 2.59" stroke="#000000" stroke-width="1" fill="none"></path></g></g><mask></mask><g stroke-linecap="round"><g transform="translate(708 124.875) rotate(0 30.693245852558107 31.034761460982253)"><path d="M-1.17 -0.73 C8.57 1.02, 48.66 -1, 58.39 9.46 C68.12 19.92, 57.16 53.18, 57.2 62.01 M0.41 1.49 C10.04 3.49, 47.77 0.49, 57.65 10.71 C67.52 20.93, 59.41 54.06, 59.67 62.8" stroke="#000000" stroke-width="1" fill="none"></path></g><g transform="translate(708 124.875) rotate(0 30.693245852558107 31.034761460982253)"><path d="M51.9 37.78 C53.91 43.33, 55.06 53.19, 58.66 63.45 M53.04 37.33 C55.76 45.39, 56.77 52.95, 60.46 62.39" stroke="#000000" stroke-width="1" fill="none"></path></g><g transform="translate(708 124.875) rotate(0 30.693245852558107 31.034761460982253)"><path d="M69.94 39.57 C66.71 44.43, 62.61 53.77, 58.66 63.45 M71.07 39.13 C68.5 46.6, 64.18 53.63, 60.46 62.39" stroke="#000000" stroke-width="1" fill="none"></path></g></g><mask></mask><g stroke-linecap="round"><g transform="translate(804 300.875) rotate(0 -19.06031169395885 53.36638089093523)"><path d="M-0.27 -0.33 C1.97 15.75, 22.82 79.89, 13.92 97.69 C5.02 115.49, -42.22 105.17, -53.65 106.45 M1.78 -1.55 C3.91 14.7, 22.79 77.69, 13.46 95.93 C4.12 114.17, -42.86 106.23, -54.24 107.91" stroke="#000000" stroke-width="1" fill="none"></path></g><g transform="translate(804 300.875) rotate(0 -19.06031169395885 53.36638089093523)"><path d="M-26.53 99.37 C-34.3 101.76, -44.58 103.45, -55.62 106.8 M-25.24 97.74 C-35.18 101.52, -43.34 103.71, -54.52 106.99" stroke="#000000" stroke-width="1" fill="none"></path></g><g transform="translate(804 300.875) rotate(0 -19.06031169395885 53.36638089093523)"><path d="M-26.66 119.89 C-34.6 115.33, -44.83 110.07, -55.62 106.8 M-25.38 118.26 C-35.42 116.02, -43.55 112.18, -54.52 106.99" stroke="#000000" stroke-width="1" fill="none"></path></g></g><mask></mask><g stroke-linecap="round"><g transform="translate(617 401.1974188426966) rotate(0 -40.11825143205937 -5.467768448411221)"><path d="M-0.44 0.71 C-14.16 -0.93, -68.41 -8.21, -81.77 -9.95 M1.53 0.04 C-11.85 -1.93, -65.68 -9.72, -79.46 -11.64" stroke="#000000" stroke-width="1" fill="none"></path></g><g transform="translate(617 401.1974188426966) rotate(0 -40.11825143205937 -5.467768448411221)"><path d="M-48.93 -19.11 C-58.88 -15.14, -68.62 -13.31, -78.32 -11.65 M-50.8 -18.51 C-59.4 -15.33, -67.55 -13.53, -80.37 -12.3" stroke="#000000" stroke-width="1" fill="none"></path></g><g transform="translate(617 401.1974188426966) rotate(0 -40.11825143205937 -5.467768448411221)"><path d="M-51.82 1.21 C-60.76 -1.82, -69.5 -7, -78.32 -11.65 M-53.69 1.81 C-61.45 -0.77, -68.78 -4.71, -80.37 -12.3" stroke="#000000" stroke-width="1" fill="none"></path></g></g><mask></mask><g transform="translate(532 10) rotate(0 69.41666412353516 21.875)"><text x="0" y="0" font-family="Virgil, Segoe UI Emoji" font-size="35px" fill="#000000" text-anchor="start" style="white-space: pre;" direction="ltr" dominant-baseline="text-before-edge">Pyjamas</text></g></svg>